<?xml version="1.0" standalone="no"?><!DOCTYPE svg PUBLIC "-//W3C//DTD SVG 1.1//EN" "http://www.w3.org/Graphics/SVG/1.1/DTD/svg11.dtd"><svg t="1645793546840" class="icon" viewBox="0 0 1129 1024" version="1.1" xmlns="http://www.w3.org/2000/svg" p-id="25195" xmlns:xlink="http://www.w3.org/1999/xlink" width="141.125" height="128"><defs><style type="text/css"></style></defs><path d="M955.956746 299.512833h-9.313385c-32.863792 0-53.388832 29.126574-53.388833 62.049687V478.721347h118.64185V359.071041c-0.237284-32.863792-23.194482-59.558209-55.939632-59.558208zM773.544902 122.795798h-179.861044a59.320925 59.320925 0 0 0-59.320925 59.320924v712.740913a59.320925 59.320925 0 0 0 59.320925 59.320925h69.464803a292.808085 292.808085 0 0 1-31.558732-56.176916 281.537109 281.537109 0 0 1 60.92259-309.892512 290.316606 290.316606 0 0 1 90.583052-60.210739 271.689836 271.689836 0 0 1 49.948219-15.898007V182.354006a59.320925 59.320925 0 0 0-59.498888-59.558208zM416.13633 0.001483H293.519978c-32.863792 0-54.575251 26.694416-54.575251 59.320925v62.22765l236.927774 1.838949V59.559692A59.320925 59.320925 0 0 0 416.13633 0.001483zM238.944727 182.354006v594.099063l236.927774 0.593209V182.354006z m0 656.682638v53.982042c0 32.863792 21.711459 59.320925 54.575251 59.320925h122.616352a59.320925 59.320925 0 0 0 59.320924-59.320925v-54.160004zM118.641891 122.143267H57.244734c-32.863792 0-57.06673 26.694416-57.06673 59.320925v61.634441l175.530617-1.838949v-59.320924c0-33.101076-24.202937-59.795492-57.06673-59.795493z m-118.641849 716.300168v54.575251c0 32.863792 24.202937 59.320925 57.066729 59.320925h61.57512c32.863792 0 57.06673-26.694416 57.06673-59.320925v-54.575251z m0-535.193384v475.635176h175.708579V303.250051z"  p-id="25196"></path><path d="M893.788417 1023.821325a231.351607 231.351607 0 0 1-92.066076-18.508128 236.69049 236.69049 0 0 1-126.472212-126.531533 235.266788 235.266788 0 0 1 50.838033-258.817195 243.215792 243.215792 0 0 1 75.634179-50.244824 237.283699 237.283699 0 0 1 183.894867 0 232.656667 232.656667 0 0 1 125.404436 125.345115 237.93623 237.93623 0 0 1 0 183.894867 243.631038 243.631038 0 0 1-50.304145 75.6935 234.199011 234.199011 0 0 1-166.929082 69.346161z m116.684259-275.011807H924.991223v-79.727323a39.863662 39.863662 0 0 0-10.440483-27.702872 33.99089 33.99089 0 0 0-26.516453-11.567581 30.78756 30.78756 0 0 0-25.448677 11.567581 42.770387 42.770387 0 0 0-9.254064 27.702872v79.727323h-75.337575a39.507736 39.507736 0 0 0-39.270452 39.270452 27.643551 27.643551 0 0 0 11.864185 24.262258 46.982172 46.982172 0 0 0 27.406267 8.126967h75.337575v81.981518a43.066991 43.066991 0 0 0 9.254064 27.762193 30.78756 30.78756 0 0 0 25.448677 11.56758 33.99089 33.99089 0 0 0 26.397812-11.56758 40.100945 40.100945 0 0 0 10.440482-27.762193v-81.981518h85.481453v2.254195a43.007671 43.007671 0 0 0 27.762193-9.194743 30.906202 30.906202 0 0 0 11.508259-25.448677 39.389094 39.389094 0 0 0-39.270452-39.270452z" p-id="25197"></path></svg>