<?xml version="1.0" standalone="no"?><!DOCTYPE svg PUBLIC "-//W3C//DTD SVG 1.1//EN" "http://www.w3.org/Graphics/SVG/1.1/DTD/svg11.dtd"><svg t="1645792379160" class="icon" viewBox="0 0 1024 1024" version="1.1" xmlns="http://www.w3.org/2000/svg" p-id="6705" xmlns:xlink="http://www.w3.org/1999/xlink" width="128" height="128"><defs><style type="text/css"></style></defs><path d="M821.326552 629.285866a197.24857 197.24857 0 1 0 198.984531 197.248569A197.899555 197.899555 0 0 0 821.326552 629.285866z m88.100021 224.80695h-62.494596v63.362577a27.124391 27.124391 0 0 1-54.031786 0v-63.145582h-59.67366a26.25641 26.25641 0 0 1-26.6904-27.558381 26.690401 26.690401 0 0 1 26.6904-26.6904h59.67366v-65.098538a27.124391 27.124391 0 0 1 54.031786 0v65.098538h62.494596A26.039415 26.039415 0 0 1 936.767959 826.75143a26.907396 26.907396 0 0 1-26.473405 27.558381z" p-id="6706"></path><path d="M580.895953 826.75143a238.694639 238.694639 0 0 1 198.98453-233.920746 443.755033 443.755033 0 0 0-209.183301-134.102987 234.354736 234.354736 0 0 0 123.904217-214.60818 246.940453 246.940453 0 0 0-493.663912 0 233.269761 233.269761 0 0 0 120.2153 214.60818A449.179911 449.179911 0 0 0 3.688917 886.42509c0 80.722187 2.820937 85.279085 91.788938 86.79805h534.892986a243.468531 243.468531 0 0 1-49.474888-146.47171z" p-id="6707"></path></svg>