<?xml version="1.0" standalone="no"?><!DOCTYPE svg PUBLIC "-//W3C//DTD SVG 1.1//EN" "http://www.w3.org/Graphics/SVG/1.1/DTD/svg11.dtd"><svg t="1645946007544" class="icon" viewBox="0 0 1024 1024" version="1.1" xmlns="http://www.w3.org/2000/svg" p-id="3230" xmlns:xlink="http://www.w3.org/1999/xlink" width="128" height="128"><defs><style type="text/css"></style></defs><path d="M851.025 38.605H178.547c-73.974 0-134.494 60.521-134.494 134.493V845.58c0 73.974 60.52 134.5 134.494 134.5h672.479c73.978 0 134.503-60.526 134.503-134.5V173.099c-0.001-73.973-60.526-134.494-134.504-134.494zM313.046 173.099c40.347 0 67.247 26.9 67.247 67.254 0 40.347-26.9 67.247-67.247 67.247-40.353 0-67.247-26.9-67.247-67.247 0-40.354 26.894-67.254 67.247-67.254z m509.288 649.209H240.146c-36.011 0-60.019-24.009-60.019-60.019v-18.005c54.02-162.055 102.032-246.081 156.051-246.081 84.025 0 108.036 108.035 180.055 108.035 72.025 0 84.028-282.091 198.063-282.091 66.023 0 120.044 144.049 162.058 432.138 0 30.012-24.008 60.019-54.02 66.023z" p-id="3231"></path></svg>