<?xml version="1.0" standalone="no"?><!DOCTYPE svg PUBLIC "-//W3C//DTD SVG 1.1//EN" "http://www.w3.org/Graphics/SVG/1.1/DTD/svg11.dtd"><svg t="1645946236204" class="icon" viewBox="0 0 1024 1024" version="1.1" xmlns="http://www.w3.org/2000/svg" p-id="4312" xmlns:xlink="http://www.w3.org/1999/xlink" width="128" height="128"><defs><style type="text/css"></style></defs><path d="M925.56288 207.94368h-44.65664v-41.8304c0-38.38976-35.65568-69.632-79.48288-69.632H98.43712c-43.8272 0-79.48288 31.232-79.48288 69.632v580.22912c0 38.38976 35.65568 69.632 79.48288 69.632h44.65664v41.84064c0 38.38976 35.65568 69.632 79.48288 69.632l677.888 0.09216 25.12896-0.09216c43.8272 0 79.48288-31.232 79.48288-69.632V277.504c-0.04096-38.32832-35.69664-69.56032-79.5136-69.56032z m-727.15264 81.5104c0-16.76288 15.44192-30.4128 34.4064-30.42304l682.77248-0.3584c18.95424 0 34.36544 13.64992 34.36544 30.4128l-0.18432 496.14848-6.52288-8.0896a2352.34304 2352.34304 0 0 0-32.59392-39.59808c-16.60928-19.78368-32.768-38.3488-48.01536-55.15264-91.63776-100.7616-148.98176-140.0832-204.57472-140.0832-54.9888 0-117.76 40.82688-223.87712 145.6128-14.19264 14.01856-29.32736 29.41952-44.97408 45.71136-34.24256 35.76832-70.35904 75.32544-107.35616 117.68832-7.04512 8.01792-14.10048 16.16896-20.95104 24.12544l-1.024 1.2288h-27.29984a36.43392 36.43392 0 0 1-24.64768-9.13408 28.672 28.672 0 0 1-9.73824-21.26848z m129.85344 583.3728c32.768-37.21216 64.60416-71.89504 94.49472-103.0656 14.49984-15.13472 29.31712-30.21824 44.032-44.77952 94.91456-93.72672 150.33344-131.9424 191.2832-131.9424 40.448 0 89.72288 36.07552 170.0864 124.53888 14.71488 16.16896 30.45376 34.21184 46.76608 53.63712 23.88992 28.416 46.22336 56.20736 70.28736 87.48032l0.8192 1.08544-0.68608 1.08544c-6.05184 9.5232-17.57184 15.45216-30.04416 15.47264l-567.35744 0.27648-9.95328-0.36864-13.09696 0.4096z m-105.6768-664.8832c-43.8272 0-79.48288 31.232-79.48288 69.632v487.63904h-34.65216a36.42368 36.42368 0 0 1-24.65792-9.15456 28.5696 28.5696 0 0 1-9.728-21.26848l0.2048-556.82048c0-17.03936 15.11424-30.4128 34.4064-30.42304l682.76224-0.33792c18.96448 0 34.38592 13.64992 34.38592 30.4128v30.3104z"  p-id="4313"></path><path d="M356.83328 471.27552a52.36736 52.36736 0 1 1 52.36736-52.36736 52.44928 52.44928 0 0 1-52.36736 52.36736z"  p-id="4314"></path></svg>