<?xml version="1.0" standalone="no"?><!DOCTYPE svg PUBLIC "-//W3C//DTD SVG 1.1//EN" "http://www.w3.org/Graphics/SVG/1.1/DTD/svg11.dtd"><svg t="1645792549103" class="icon" viewBox="0 0 1026 1024" version="1.1" xmlns="http://www.w3.org/2000/svg" p-id="8967" xmlns:xlink="http://www.w3.org/1999/xlink" width="128.25" height="128"><defs><style type="text/css"></style></defs><path d="M317.967537 0H160.429076C73.710656 0 2.890614 70.820042 2.890614 157.538462v157.538461c0 86.718419 70.820042 157.538462 157.538462 157.538462H317.967537c86.718419 0 157.538462-70.820042 157.538462-157.538462V157.538462C475.505999 70.820042 404.685956 0 317.967537 0z m551.384615 0H711.813691c-86.718419 0-157.538462 70.820042-157.538462 157.538462v157.538461c0 86.718419 70.820042 157.538462 157.538462 157.538462h157.538461c86.718419 0 157.538462-70.820042 157.538462-157.538462V157.538462c0-86.718419-70.820042-157.538462-157.538462-157.538462zM317.967537 551.384615H160.429076C73.710656 551.384615 2.890614 622.204658 2.890614 708.923077v157.538461c0 86.718419 70.820042 157.538462 157.538462 157.538462H317.967537c86.718419 0 157.538462-70.820042 157.538462-157.538462V708.923077c0-86.718419-70.820042-156.815808-157.538462-157.538462z m551.384615 0H711.813691c-86.718419 0-157.538462 70.820042-157.538462 157.538462v157.538461c0 86.718419 70.820042 157.538462 157.538462 157.538462h157.538461c86.718419 0 157.538462-70.820042 157.538462-157.538462V708.923077c0-86.718419-70.820042-156.815808-157.538462-157.538462z" p-id="8968"></path></svg>