<?xml version="1.0" standalone="no"?><!DOCTYPE svg PUBLIC "-//W3C//DTD SVG 1.1//EN" "http://www.w3.org/Graphics/SVG/1.1/DTD/svg11.dtd"><svg t="1646042892529" class="icon" viewBox="0 0 1084 1024" version="1.1" xmlns="http://www.w3.org/2000/svg" p-id="1406" xmlns:xlink="http://www.w3.org/1999/xlink" width="135.5" height="128"><defs><style type="text/css"></style></defs><path d="M392.57676 550.649703L302.249364 653.136556c-26.05598 29.53011 8.685327 59.928753 33.872773 37.346905 33.872774-29.53011 77.299406-38.215437 112.909246 2.605598l81.642069 92.064461c24.318914 27.793045 45.163698 53.849025 69.482612 77.299406 66.008482 62.534351 118.120441 92.064461 193.682782 112.909245 31.267176 8.685327 117.251908 30.398643 141.570823 7.816794 7.816794-7.816794-6.079729-6.948261-13.896522-10.422392-1.737065-0.868533-5.211196-2.605598-5.211196-3.47413 0-0.868533 4.342663 0 6.079728 0.868532 1.737065 0.868533 3.474131 0.868533 5.211196 0.868533 18.239186 0 12.159457-8.685327-3.47413-11.290924-29.53011-5.211196-43.426633-14.765055-37.346904-17.370654 1.737065-0.868533 6.079729 0 10.422391 0.868533 17.370653 4.342663 33.004241 6.079729 50.374894 1.737065 10.422392-2.605598 15.633588-7.816794 2.605598-12.159457-14.765055-5.211196-12.159457-15.633588-33.872773-18.239186-8.685327-0.868533-14.765055-2.605598-24.318915-5.211195-3.474131-0.868533-0.868533-2.605598 0.868533-2.605598 3.474131 0 9.553859 0 13.896523-0.868533 6.948261-1.737065-4.342663-2.605598-5.211196-2.605598-19.107718-3.474131-26.05598-4.342663-42.5581-12.159457-6.079729-2.605598 0-6.948261 4.342663-5.211196 11.290925 4.342663 73.825276 19.107718 93.801527 14.765055 1.737065 0 0.868533-1.737065-0.868533-1.737065C845.950806 887.640373 776.468193 842.476675 701.774385 755.62341c-30.398643-35.609839-62.534351-72.08821-92.932994-105.960984l-64.271416-72.956743c-30.398643-34.741306-65.139949-46.900763-93.801527-46.900764-26.05598-0.868533-47.769296 9.553859-58.191688 20.844784" p-id="1407"></path><path d="M514.171332 413.421544l-75.562341 85.1162c-3.474131 4.342663 0.868533 9.553859 5.211196 7.816794 44.295165-15.633588 89.458863-4.342663 132.016963 43.426632l79.036472 89.458864c68.61408 77.299406 138.965225 155.467345 246.663274 190.208651 45.163698 14.765055 111.17218 28.661578 153.73028 10.422392 5.211196-2.605598 3.474131-6.079729-0.868533-8.685326-10.422392-4.342663-20.844784-9.553859-29.53011-13.896523l-5.211196-2.605598c-1.737065-3.474131 0-2.605598 6.079728 0 5.211196 1.737065 12.159457 5.211196 20.844784 7.816794 15.633588 5.211196 38.215437-10.422392 27.793045-13.02799-49.506361-15.633588-41.689567-26.924512-31.267176-23.450381 8.685327 2.605598 17.370653 0 0-6.948262-11.290925-4.342663-19.976251-6.079729-28.661577-11.290924-2.605598-1.737065-0.868533-1.737065 0.868532-1.737065 5.211196 1.737065 26.924512 0.868533 6.948262-4.342664-26.05598-7.816794-107.698049-43.426633-122.463105-61.665818 0-0.868533 0-1.737065 0.868533-0.868533 6.079729 2.605598 22.581849 13.896522 41.689567 22.581849 20.844784 10.422392 44.295165 18.239186 52.980492 21.713317 15.633588 6.079729 10.422392-9.553859-6.079728-13.896523-42.5581-11.290925-79.905004-43.426633-113.777778-73.825276-51.243427-46.032231-93.801527-98.14419-135.491094-145.044953l-86.853266-97.275657c-19.107718-21.713316-45.163698-33.004241-70.351145-33.004241-23.450382 0-49.506361 11.290925-68.614079 33.004241" p-id="1408"></path><path d="M0 526.330789C0 709.591179 95.538592 877.217981 245.794741 972.756573c10.422392 6.948261 21.713316 13.02799 33.004241 19.107719 24.318914 13.02799 60.797286 26.924512 82.510602 31.267175 6.948261 0.868533 9.553859-9.553859 4.342664-11.290924-20.844784-6.079729-46.032231-16.50212-70.351145-29.53011-1.737065-0.868533-1.737065-6.079729 0.868532-4.342664l5.211196 2.605598c1.737065 0.868533 1.737065-0.868533 0-1.737065l-6.948261-3.474131c-2.605598-1.737065-1.737065-6.079729 2.605598-3.47413 3.474131 2.605598 7.816794 5.211196 11.290924 6.948261 3.474131 1.737065 4.342663-0.868533 1.737066-3.474131-1.737065-1.737065-3.474131-1.737065-5.211196-4.342663-1.737065-3.474131 0-5.211196 3.47413-2.605598s12.159457 7.816794 24.318915 12.159457c33.872774 12.159457 90.327396 27.793045 106.829516 30.398643 8.685327 1.737065 16.50212-11.290925 4.342664-13.896522-20.844784-5.211196-46.032231-9.553859-64.271417-19.107719-2.605598-1.737065-1.737065-2.605598 0.868533-1.737065 3.474131 0.868533 6.948261 1.737065 6.948261-1.737065 0-1.737065 0.868533-3.474131 0.868533-5.211196 1.737065-5.211196 8.685327-3.474131 13.896522-2.605598 8.685327 1.737065 18.239186 4.342663 26.924512 6.079728 2.605598 0.868533 4.342663 0 5.211196-1.737065 3.474131-4.342663-7.816794-6.948261-9.553859-6.948261-6.079729-0.868533-40.821035-6.948261-71.219677-19.107719-19.107718-6.948261-39.952502-19.107718-41.689568-26.055979-0.868533-3.474131 1.737065-5.211196 3.474131-2.605598 17.370653 16.50212 46.900763 26.924512 69.482612 32.135708 18.239186 4.342663 51.243427 12.159457 58.191688 13.02799 5.211196 0.868533 7.816794-1.737065 0-3.474131-8.685327-1.737065-19.107718-2.605598-20.844784-6.948261-0.868533-1.737065-10.422392-3.474131-16.50212-5.211196-8.685327-2.605598-5.211196-7.816794 2.605598-6.948261 5.211196 0.868533 8.685327-1.737065 1.737065-3.474131-18.239186-5.211196-38.215437-7.816794-45.163698-17.370653-5.211196-6.948261-15.633588-10.422392-25.187447-15.633588-5.211196-2.605598-2.605598-6.948261 1.737065-4.342663 23.450382 12.159457 51.243427 21.713316 76.430874 28.661578 5.211196 0.868533 9.553859 1.737065 13.896522 1.737065 5.211196 0 5.211196-3.474131 0.868533-4.342663-43.426633-13.896522-85.984733-29.53011-125.068702-56.454623-30.398643-21.713316-11.290925-34.741306-0.868533-26.05598 13.896522 10.422392 27.793045 20.844784 43.426633 28.661578 5.211196 2.605598 8.685327-3.474131 3.474131-6.079728-24.318914-13.896522-18.239186-28.661578-6.079729-19.107719 28.661578 20.844784 96.407125 35.609839 131.148431 33.872774 12.159457-0.868533 14.765055-9.553859 3.47413-10.422392-6.948261-0.868533-13.02799-1.737065-19.976251-2.605598-49.506361-8.685327-96.407125-28.661578-136.359626-57.323155-87.721798-62.534351-145.044953-170.2324-145.044954-281.404581 0-188.471586 152.861747-342.201866 341.333334-342.201866 153.73028 0 284.010178 102.486853 326.568278 243.189144l0.868532-0.868533c2.605598 7.816794 4.342663 15.633588 5.211196 24.318914 0.868533 1.737065 0 2.605598 0 2.605598 0.868533 0.868533 1.737065 0.868533 1.737066 0.868533v0.868533l1.737065 6.948261c6.079729 22.581849 9.553859 46.032231 14.765055 68.61408 15.633588 74.693808 79.905004 92.064461 119.857506 24.318914 19.976251-32.135708 28.661578-70.351145 29.530111-108.566582 0.868533-46.032231-16.50212-125.937235-37.346904-165.021204C900.668363 114.64631 726.093299 0 524.593723 0 235.372349 0 0 236.240882 0 526.330789" p-id="1409"></path></svg>