<?xml version="1.0" standalone="no"?><!DOCTYPE svg PUBLIC "-//W3C//DTD SVG 1.1//EN" "http://www.w3.org/Graphics/SVG/1.1/DTD/svg11.dtd"><svg t="1646064097033" class="icon" viewBox="0 0 1109 1024" version="1.1" xmlns="http://www.w3.org/2000/svg" p-id="2399" xmlns:xlink="http://www.w3.org/1999/xlink" width="138.625" height="128"><defs><style type="text/css"></style></defs><path d="M1024 1024H256a85.333333 85.333333 0 0 1-85.333333-85.333333V256a85.333333 85.333333 0 0 1 85.333333-85.333333h768a85.333333 85.333333 0 0 1 85.333333 85.333333v682.666667a85.333333 85.333333 0 0 1-85.333333 85.333333zM341.333333 853.333333h512v-85.333333H341.333333v85.333333z m0-213.333333h341.333334v-85.333333H341.333333v85.333333z m597.333334-298.666667H341.333333v85.333334h597.333334V341.333333z m42.666666-256H85.333333v810.666667a42.666667 42.666667 0 1 1-85.333333 0V42.666667a42.666667 42.666667 0 0 1 42.666667-42.666667 41.301333 41.301333 0 0 1 21.333333 6.528A41.258667 41.258667 0 0 1 85.333333 0h896a42.666667 42.666667 0 1 1 0 85.333333z"  p-id="2400"></path></svg>