<?xml version="1.0" standalone="no"?><!DOCTYPE svg PUBLIC "-//W3C//DTD SVG 1.1//EN" "http://www.w3.org/Graphics/SVG/1.1/DTD/svg11.dtd"><svg t="1645793202713" class="icon" viewBox="0 0 1024 1024" version="1.1" xmlns="http://www.w3.org/2000/svg" p-id="19868" xmlns:xlink="http://www.w3.org/1999/xlink" width="128" height="128"><defs><style type="text/css"></style></defs><path d="M759.944533 561.0496a491.383467 491.383467 0 0 0-101.000533-45.192533 494.114133 494.114133 0 0 0-148.718933-22.801067C243.575467 493.056 26.658133 705.7408 26.658133 967.133867h560.810667a250.6752 250.6752 0 0 1-54.340267-155.8528 251.426133 251.426133 0 0 1 226.816-250.231467zM367.3088 406.869333a232.891733 232.891733 0 0 0 142.916267 48.2304c127.931733 0 232.0384-102.058667 232.0384-227.566933S638.122667 0 510.225067 0c-128 0-232.1408 102.0928-232.1408 227.566933 0 70.519467 32.529067 135.850667 89.224533 179.3024z"  p-id="19869"></path><path d="M784.5888 598.4256a212.7872 212.7872 0 0 0 0 425.540267 212.718933 212.718933 0 0 0 212.718933-212.753067 212.650667 212.650667 0 0 0-212.718933-212.7872z m103.492267 323.3792h-206.9504c-9.864533 0-17.749333-7.8848-17.749334-17.7152s7.850667-17.7152 17.749334-17.7152h206.9504c9.864533 0 17.749333 7.8848 17.749333 17.7152s-7.8848 17.7152-17.749333 17.7152z m0-92.8768h-206.9504a17.681067 17.681067 0 1 1 0-35.464533h206.9504a17.681067 17.681067 0 1 1 0 35.464533z m0-92.8768h-206.9504a17.681067 17.681067 0 1 1 0-35.464533h206.9504a17.7152 17.7152 0 1 1 0 35.464533z"  p-id="19870"></path></svg>